@startuml
'https://plantuml.com/class-diagram

skinparam classAttributeIconSize 0
hide empty attributes
skinparam classBackgroundColor beige
skinparam ArrowColor #222222

package "<<aggregate>> ProductOrder"{
    entity ProductOrder
    entity OrderItem
    class TotalPriceWithoutVAT
    class TotalPriceWithVAT
    class Status
    class TotalVolume
    class TotalWeight
    class DeliveryAddress
    class BillingAddress
}

entity ProductOrder <<entity>> <<root>> {
- numericIdentifier
- dateOfOrder
- shipmentMethod
- paymentMethod

}

entity OrderItem <<entity>> {
    -itemQuantity
}

class TotalPriceWithoutVAT <<(V,#FF8B40) value object>> {}
class TotalPriceWithVAT <<(V,#FF8B40) value object>> {}
class DeliveryAddress <<(V,#FF8B40) value object>> {}
class BillingAddress <<(V,#FF8B40) value object>> {}
class Status <<(V,#FF8B40) value object>> {}
class TotalVolume <<(V,#FF8B40) value object>> {}
class TotalWeight <<(V,#FF8B40) value object>> {}

package "<<aggregate>> Client" {
    entity Client
    class PostalAddresses
}

entity Client <<entity>> <<root>> {

}
class PostalAddresses <<(V,#FF8B40) value object>> {}

entity Client <<entity>> <<root>> {

}
package "<<aggregate>> ShopCar"{
    entity ShopCar
    entity Item
}

entity ShopCar <<entity>> <<root>>{

}
entity Item <<entity>> {
    -productQuantity

}
package "<<aggregate>> Product"{
     entity Product
     class PriceWithoutVAT
     class PriceWithVAT

}

entity Product <<entity>> <<root>> {

}

class PriceWithoutVAT <<(V,#FF8B40) value object>> {}
class PriceWithVAT <<(V,#FF8B40) value object>> {}

package "<<aggregate>> Employee" {
    entity Employee
}

entity Employee <<entity>> <<root>> {
    -identifier
}

package "<<aggregate>> AGV" {
    entity AGV
    entity AGVTask

}

entity AGV <<entity>> <<root>> {
    -state
}

entity AGVTask <<entity>> {
    -id
    -agvTaskDescription
}

Client -----> "1" ShopCar : associated
ProductOrder -----> "1" Client : associated
Client -> "0..*" PostalAddresses: associated with an
ShopCar ...> "1" ProductOrder : is transformed
Product --> "1" PriceWithoutVAT: associated
Product --> "1" PriceWithVAT: associated
Item --> "1" Product : composed by
ProductOrder -> "1" TotalPriceWithoutVAT : is marked
ProductOrder -> "1" TotalPriceWithVAT : is marked
ShopCar -> "1..*" Item : composed by
ProductOrder ----> "0..1" Employee : associated with
ProductOrder --> "1" Status : is in
ProductOrder ---> "1" TotalVolume : associated with
ProductOrder ---> "1" TotalWeight : associated with
ProductOrder ---> "1" DeliveryAddress : associated with
ProductOrder ---> "1" BillingAddress : associated with
ProductOrder -> "1..*" OrderItem : composed by
OrderItem --------> "1" Product : composed by

AGVTask -> "1..*" ProductOrder : composed by

AGV -> "1" AGVTask : associated
@enduml
